<svg width="160" height="40" viewBox="0 0 160 40" fill="none" xmlns="http://www.w3.org/2000/svg">
<g id="logo" clip-path="url(#clip0_263_9177)">
<path id="1" fill-rule="evenodd" clip-rule="evenodd" d="M10.0236 0.494029C9.47559 0.767926 8.98724 1.14766 8.58675 1.6113C8.18627 2.07495 7.88158 2.61333 7.69029 3.19536L0.256287 25.6347C-0.133796 26.8081 -0.0430883 28.0882 0.508552 29.1949C1.06019 30.3015 2.02782 31.1445 3.19962 31.5394L27.583 39.76C28.1633 39.953 28.7761 40.0296 29.3861 39.9855C29.9961 39.9413 30.5914 39.7772 31.1379 39.5026C31.6844 39.2281 32.1714 38.8484 32.5709 38.3853C32.9705 37.9222 33.2747 37.3849 33.4663 36.804L40.9043 14.3667C41.2931 13.1931 41.2017 11.9134 40.6501 10.8069C40.0985 9.70047 39.1315 8.85724 37.9603 8.46136L13.575 0.241363C12.996 0.0449846 12.3836 -0.0338213 11.7738 0.00956601C11.164 0.0529533 10.569 0.21766 10.0236 0.494029Z" fill="white"/>
<path id="2" fill-rule="evenodd" clip-rule="evenodd" d="M16.5188 2.94667C18.0471 3.55599 19.4235 4.49242 20.5514 5.69021C21.6793 6.88801 22.5315 8.31815 23.0479 9.88025C23.5644 11.4424 23.7328 13.0986 23.5412 14.7327C23.3496 16.3667 22.8026 17.9391 21.9388 19.3393C20.5977 17.83 18.9181 16.6601 17.0375 15.9253L15.9475 15.5013V25.9053L17.0521 25.4767C18.9307 24.7368 20.6068 23.5617 21.9428 22.048C23.2498 24.1541 23.8273 26.6317 23.5864 29.0987C23.3454 31.5656 22.2993 33.8846 20.6095 35.698L20.6215 35.6867C20.6176 35.6909 20.6142 35.6956 20.6115 35.7007L3.68747 30.0213C2.91887 29.7658 2.28231 29.2171 1.91635 28.4945C1.55039 27.772 1.48466 26.9341 1.73347 26.1633L9.19147 3.71133C9.3118 3.33221 9.50619 2.98075 9.76337 2.67732C10.0206 2.37389 10.3354 2.12453 10.6897 1.9437C11.044 1.76287 11.4306 1.65417 11.8272 1.62389C12.2238 1.59362 12.6225 1.64237 13.0001 1.76733L16.5188 2.94667ZM12.1541 26.5413H10.4788V14.882H12.1535V26.5413H12.1541Z" fill="#0099DA"/>
<path id="3" fill-rule="evenodd" clip-rule="evenodd" d="M37.419 9.95531L21.8877 4.74664C23.8428 6.8898 25.0175 9.63003 25.2216 12.5238C25.4257 15.4176 24.6473 18.2956 23.0124 20.692C24.6059 23.0106 25.3966 25.7872 25.2634 28.5974C25.1303 31.4077 24.0807 34.0971 22.275 36.2546L28.1077 38.2106C28.4852 38.336 28.8838 38.3851 29.2804 38.355C29.677 38.3249 30.0637 38.2163 30.4179 38.0354C30.7721 37.8545 31.0869 37.605 31.3438 37.3013C31.6007 36.9977 31.7946 36.6459 31.9144 36.2666L39.373 13.8166C39.6216 13.0454 39.5558 12.2072 39.1899 11.4842C38.824 10.7612 38.1877 10.2118 37.419 9.95531ZM33.301 26.5053L31.205 26.51L26.8917 20.6806L31.275 14.85L33.3897 14.846L28.9964 20.6866L33.301 26.5053Z" fill="#0055A2"/>
<path id="4" fill-rule="evenodd" clip-rule="evenodd" d="M20.9633 20.6953C20.0184 19.57 18.8616 18.6413 17.5586 17.962V23.44C18.8626 22.7574 20.0195 21.8248 20.9633 20.6953Z" fill="#F15A21"/>
<path id="5" fill-rule="evenodd" clip-rule="evenodd" d="M48.992 15.1526V34.486H45.3213V15.1526H48.992ZM63.7266 24.4666L63.238 24.4593L63.312 24.4466C64.3701 24.302 65.3388 23.7754 66.0357 22.966C66.7325 22.1567 67.1094 21.1205 67.0953 20.0526C67.0953 15.786 63.2333 15.1533 60.9313 15.1533H54.2366V34.4866H61.3333C63.854 34.4866 68.084 33.7653 68.084 28.942C68.0873 26.6 66.3333 24.716 63.7266 24.4666ZM57.906 17.404H59.5333C61.4153 17.404 63.4246 17.7913 63.4246 20.5573C63.4246 22.2206 62.144 23.266 59.6173 23.266H57.906V17.404ZM60.276 32.2706H57.906V25.5333H60.276C62.054 25.5333 64.4173 26.0553 64.4173 28.8C64.4173 30.6626 62.9853 32.2706 60.276 32.2706ZM86.6 15.1526C86.2666 15.5346 78.0833 24.258 78.0833 24.258C78.0833 24.258 86.6426 34.112 86.95 34.4886H82.758C82.6866 34.3953 75.1393 25.4006 75.1393 25.4006H74.972V34.4886H71.3013V15.1553H74.972V23.778C74.972 23.778 82.554 15.238 82.626 15.1526H86.6ZM101.103 24.3253C100.679 24.7804 100.168 25.1458 99.6 25.4C99.0106 25.6643 98.3712 25.7987 97.7253 25.794C97.1031 25.7958 96.4868 25.6739 95.9123 25.4353C95.3377 25.1966 94.8164 24.8461 94.3786 24.404C93.9196 23.9516 93.5551 23.4125 93.3063 22.818C93.0575 22.2235 92.9293 21.5855 92.9293 20.941C92.9293 20.2965 93.0575 19.6585 93.3063 19.064C93.5551 18.4695 93.9196 17.9303 94.3786 17.478C94.8149 17.0333 95.3358 16.6803 95.9105 16.4399C96.4853 16.1995 97.1023 16.0764 97.7253 16.078C98.4084 16.0745 99.0831 16.2283 99.6973 16.5273C100.295 16.8105 100.821 17.2258 101.235 17.742H105.484V16.0753H107.684V28.8346H105.484V24.326L101.103 24.3253ZM100.209 20.9546C100.239 20.136 100.002 19.3297 99.534 18.6573C99.3324 18.3659 99.0615 18.1292 98.7456 17.9687C98.4297 17.8082 98.0788 17.7289 97.7246 17.738C97.3654 17.735 97.0106 17.8182 96.6901 17.9806C96.3696 18.143 96.0927 18.3799 95.8826 18.6713C95.3827 19.3267 95.1238 20.1341 95.1493 20.958C95.1182 21.7948 95.372 22.6175 95.8693 23.2913C96.0737 23.5805 96.345 23.8161 96.66 23.978C96.975 24.1399 97.3245 24.2234 97.6786 24.2213C98.0387 24.231 98.3955 24.1511 98.717 23.9888C99.0385 23.8265 99.3147 23.5868 99.5206 23.2913C99.9992 22.6085 100.241 21.7879 100.21 20.9546H100.209ZM98.3773 27.6306V31.746H108.011V33.4313H96.1333V27.6313L98.3773 27.6306ZM102.084 22.7273H105.484V19.358H102.151C102.253 19.5958 102.326 19.8452 102.369 20.1006C102.413 20.3757 102.436 20.654 102.435 20.9326C102.436 21.2459 102.407 21.5585 102.347 21.866C102.289 22.1615 102.202 22.4504 102.085 22.728L102.084 22.7273ZM123.793 23.1433H126.319V24.7433H110.149V23.1433H121.767C121.927 22.6993 122.026 22.2354 122.061 21.7646C122.083 21.3566 122.093 20.9186 122.093 20.452V17.8253H112.026V16.1833H124.319V20.4073C124.306 20.8862 124.248 21.3628 124.145 21.8306C124.064 22.2774 123.947 22.7166 123.794 23.144L123.793 23.1433ZM112.133 26.996H124.405V33.3653H112.133V26.996ZM114.356 31.746H122.223V28.6126H114.356V31.746ZM136.871 26.5793V29.9493H143.476V31.636H127.848V29.9493H134.648V26.58H129.547V16.38H131.747V19.8386H139.573V16.3806H141.8V26.5806H136.873L136.871 26.5793ZM131.749 24.916H139.573V21.4806H131.749L131.749 24.916ZM153.416 19.926C153.654 20.1346 153.859 20.3777 154.025 20.6473C154.186 20.9118 154.303 21.1997 154.375 21.5006H157.796V16.074H159.996V25.836H157.796V23.056H154.396C154.175 23.8846 153.66 24.6044 152.947 25.0806C152.169 25.633 151.235 25.9212 150.281 25.9026C149.194 25.9307 148.136 25.552 147.315 24.8406C146.933 24.5342 146.625 24.1459 146.414 23.7045C146.203 23.2632 146.093 22.78 146.094 22.2906C146.09 21.8408 146.188 21.3959 146.379 20.9886C146.564 20.5906 146.823 20.2306 147.141 19.9273H145.067V18.2606H155.333V19.9273H153.417L153.416 19.926ZM153.197 17.562H147.2V15.9206H153.193V17.5626L153.197 17.562ZM150.278 20.0793C149.998 20.0756 149.721 20.1302 149.464 20.2396C149.206 20.349 148.975 20.5108 148.783 20.7146C148.384 21.1421 148.162 21.7051 148.162 22.29C148.162 22.8748 148.384 23.4379 148.783 23.8653C148.978 24.0664 149.211 24.2264 149.469 24.3356C149.726 24.4448 150.003 24.5011 150.283 24.5011C150.563 24.5011 150.84 24.4448 151.098 24.3356C151.356 24.2264 151.589 24.0664 151.783 23.8653C152.175 23.4343 152.393 22.8726 152.393 22.29C152.393 21.7074 152.175 21.1457 151.783 20.7146C151.591 20.5087 151.357 20.3457 151.098 20.2363C150.838 20.127 150.558 20.0737 150.277 20.08L150.278 20.0793ZM148.381 27.1933H159.975V33.4306H148.379V27.194L148.381 27.1933ZM150.538 31.7453H157.753V28.812H150.537V31.7453H150.538Z" fill="#0055A2"/>
<path id="6" fill-rule="evenodd" clip-rule="evenodd" d="M46.6626 3.48932V10.556H45.3213V3.48932H46.6626ZM52.048 6.89332H51.8693L51.8966 6.88866C52.2838 6.83562 52.6381 6.64273 52.8928 6.34638C53.1476 6.05004 53.285 5.67072 53.2793 5.27999C53.2793 3.72199 51.868 3.48932 51.0266 3.48932H48.58V10.556H51.1746C52.096 10.556 53.6413 10.2893 53.6413 8.52932C53.6368 8.10414 53.4688 7.69701 53.1721 7.39239C52.8754 7.08778 52.4729 6.90906 52.048 6.89332ZM49.9206 4.31199H50.516C51.204 4.31199 51.938 4.45332 51.938 5.46466C51.938 6.07266 51.4713 6.45466 50.5466 6.45466H49.9206V4.31199ZM50.7873 9.74532H49.9206V7.28399H50.7873C51.4373 7.28399 52.3006 7.47466 52.3006 8.47866C52.2939 8.66462 52.2481 8.84709 52.1663 9.01425C52.0845 9.1814 51.9686 9.32951 51.8259 9.44899C51.6832 9.56847 51.5171 9.65664 51.3381 9.70781C51.1592 9.75897 50.9716 9.77198 50.7873 9.74599V9.74532ZM60.408 3.48932C60.2866 3.62932 57.2953 6.81666 57.2953 6.81666C57.2953 6.81666 60.4233 10.4167 60.5353 10.556H59.002C58.976 10.522 56.2173 7.23466 56.2173 7.23466H56.158V10.556H54.816V3.48932H56.1573V6.64199C56.1573 6.64199 58.9286 3.52066 58.9573 3.48999H60.4106L60.408 3.48932ZM66.6906 4.01066C66.6906 5.10311 66.3566 6.16944 65.7333 7.06666C65.1231 7.94901 64.2893 8.65329 63.3173 9.10732L62.95 8.60399C63.8062 8.24257 64.5508 7.65973 65.1073 6.91532C65.6282 6.22845 65.9423 5.40718 66.0126 4.54799H63.2186V4.01466H66.6906V4.01066ZM68.8353 10.556H68.2V3.23132H68.8346V10.5567L68.8353 10.556ZM71.6973 3.59199C72.1854 3.57656 72.6615 3.74555 73.0306 4.06532C73.2065 4.2184 73.3461 4.40878 73.4392 4.62259C73.5322 4.8364 73.5765 5.06827 73.5686 5.30132C73.5768 5.53384 73.5327 5.76523 73.4396 5.97845C73.3465 6.19167 73.2067 6.38128 73.0306 6.53332C72.66 6.84983 72.1844 7.01628 71.6973 6.99999C71.2107 7.0131 70.7362 6.84703 70.364 6.53332C70.1856 6.3836 70.0436 6.19519 69.9489 5.98242C69.8542 5.76964 69.8092 5.53809 69.8173 5.30532C69.811 5.07165 69.8568 4.8395 69.9513 4.62572C70.0459 4.41194 70.1868 4.22188 70.364 4.06932C70.7326 3.74822 71.2086 3.57779 71.6973 3.59199ZM71.6973 4.14532C71.3692 4.13311 71.0491 4.2488 70.8046 4.46799C70.6895 4.57352 70.5986 4.70268 70.5381 4.84663C70.4775 4.99058 70.4488 5.14592 70.454 5.30199C70.4485 5.45997 70.477 5.61728 70.5375 5.76333C70.598 5.90937 70.6891 6.04076 70.8046 6.14866C71.0552 6.35909 71.3717 6.47478 71.6989 6.47551C72.0261 6.47624 72.3431 6.36197 72.5946 6.15266C72.7071 6.0439 72.7954 5.91263 72.8536 5.76741C72.9119 5.6222 72.9388 5.46633 72.9326 5.30999C72.9387 5.15376 72.9117 4.99802 72.8535 4.85293C72.7952 4.70784 72.707 4.57667 72.5946 4.46799C72.3501 4.2457 72.0274 4.12964 71.6973 4.14532ZM75.7286 10.456H71.0546V7.55599H71.6893V8.48932H75.0946V7.53332H75.7286V10.4587V10.456ZM75.0946 9.93599V9.00266H71.6893V9.93599H75.0946ZM75.086 5.52799H73.8666V4.99999H75.0853V3.23132H75.7193V7.14532H75.0853L75.086 5.52799ZM83.2313 7.52799H76.6466V6.99466H83.2313V7.52799ZM82.48 4.88266C82.4819 5.10685 82.4198 5.32694 82.3009 5.51698C82.1819 5.70703 82.0111 5.85912 81.8086 5.95532C81.2251 6.23658 80.5802 6.36656 79.9333 6.33332C79.2892 6.36768 78.6468 6.23784 78.0666 5.95599C77.865 5.85905 77.6953 5.70666 77.5772 5.51668C77.4591 5.3267 77.3976 5.107 77.4 4.88332C77.3983 4.66144 77.4603 4.44373 77.5784 4.25591C77.6965 4.06808 77.8659 3.91798 78.0666 3.82332C78.6592 3.5771 79.2946 3.45035 79.9363 3.45035C80.578 3.45035 81.2134 3.5771 81.806 3.82332C82.008 3.91673 82.179 4.06624 82.2985 4.25405C82.418 4.44186 82.481 4.66006 82.48 4.88266ZM82.488 10.3493H77.5146V8.20999H78.1486V9.80999H82.488V10.3433V10.3493ZM79.9433 3.97999C79.4673 3.9594 78.9923 4.03936 78.5493 4.21466C78.4049 4.26184 78.2785 4.35237 78.1874 4.47392C78.0962 4.59547 78.0448 4.74215 78.04 4.89399C78.0453 5.04399 78.0966 5.18873 78.1869 5.30866C78.2771 5.4286 78.402 5.51795 78.5446 5.56466C78.9862 5.74011 79.4599 5.82009 79.9346 5.79932C80.4145 5.81993 80.8934 5.74 81.3406 5.56466C81.488 5.52334 81.6179 5.43505 81.7106 5.3132C81.8033 5.19135 81.8537 5.04259 81.8541 4.8895C81.8546 4.73641 81.8051 4.58736 81.7131 4.46496C81.6212 4.34256 81.4918 4.25351 81.3446 4.21132C80.8987 4.03742 80.4215 3.95774 79.9433 3.97732V3.97999ZM87.1866 5.12599H83.4666V4.60599H87.1886V5.12599H87.1866ZM86.9866 6.59999C86.9911 6.76474 86.9526 6.92781 86.875 7.0732C86.7974 7.2186 86.6833 7.34132 86.544 7.42932C86.1984 7.6272 85.8071 7.7313 85.409 7.7313C85.0108 7.7313 84.6195 7.6272 84.274 7.42932C84.1348 7.34114 84.021 7.21836 83.9435 7.073C83.866 6.92763 83.8276 6.76465 83.832 6.59999C83.827 6.43339 83.8651 6.26833 83.9425 6.12073C84.0199 5.97314 84.1341 5.84797 84.274 5.75732C84.6187 5.55704 85.0103 5.45154 85.409 5.45154C85.8076 5.45154 86.1992 5.55704 86.544 5.75732C86.684 5.84785 86.7983 5.97296 86.8758 6.12058C86.9534 6.2682 86.9915 6.43332 86.9866 6.59999ZM86.3106 4.08532H84.416V3.53332H86.3106V4.08666V4.08532ZM86.3606 6.59999C86.36 6.50563 86.3341 6.41317 86.2857 6.33218C86.2373 6.25118 86.1681 6.1846 86.0853 6.13932C85.8787 6.02395 85.6459 5.96339 85.4093 5.96339C85.1726 5.96339 84.9399 6.02395 84.7333 6.13932C84.6505 6.1846 84.5813 6.25118 84.5329 6.33218C84.4845 6.41317 84.4586 6.50563 84.458 6.59999C84.4593 6.69313 84.4856 6.78421 84.534 6.8638C84.5824 6.94338 84.6512 7.00859 84.7333 7.05266C84.9406 7.16807 85.174 7.22865 85.4113 7.22865C85.6486 7.22865 85.882 7.16807 86.0893 7.05266C86.1705 7.00796 86.2384 6.9425 86.2861 6.86298C86.3338 6.78345 86.3595 6.6927 86.3606 6.59999ZM89.6646 9.28999C89.6589 9.49048 89.5942 9.68483 89.4786 9.84871C89.363 10.0126 89.2016 10.1387 89.0146 10.2113C87.8563 10.6583 86.573 10.6583 85.4146 10.2113C85.2283 10.1381 85.0677 10.0118 84.9527 9.84794C84.8377 9.68411 84.7735 9.49007 84.768 9.28999C84.7746 9.09112 84.8399 8.89865 84.9556 8.73683C85.0714 8.57502 85.2325 8.45109 85.4186 8.38066C86.5779 7.93847 87.8594 7.93847 89.0186 8.38066C89.2044 8.45147 89.365 8.57567 89.4803 8.7376C89.5956 8.89953 89.6605 9.09196 89.6666 9.29066L89.6646 9.28999ZM88.5313 8.77866C87.6696 8.52142 86.7516 8.52142 85.89 8.77866C85.7651 8.8038 85.6513 8.86741 85.5645 8.96056C85.4777 9.05371 85.4223 9.17171 85.406 9.29799C85.4223 9.42427 85.4777 9.54227 85.5645 9.63542C85.6513 9.72857 85.7651 9.79218 85.89 9.81732C86.7517 10.0742 87.6696 10.0742 88.5313 9.81732C88.6568 9.79284 88.7715 9.72952 88.859 9.63633C88.9466 9.54314 89.0027 9.42478 89.0193 9.29799C89.0025 9.17171 88.9466 9.05386 88.8595 8.96096C88.7723 8.86806 88.6582 8.80478 88.5333 8.77999L88.5313 8.77866ZM89.6793 8.03266H89.0446V5.87132H88.16V7.76532H87.5426V3.36532H88.16V5.34332H89.0446V3.23132H89.6793V8.03132V8.03266ZM98 3.66666C98.0166 4.58927 97.9326 5.51095 97.7493 6.41532H98.8593V6.94866H92.2746V6.41532H97.124C97.1986 6.06337 97.2513 5.70713 97.282 5.34866C97.3264 4.90155 97.3486 4.51599 97.3486 4.19199H93.118V3.66666H98ZM98.0666 10.4047H93.0666V7.85799H98.0666V10.406V10.4047ZM97.432 9.87666V8.38599H93.702V9.87799H97.432V9.87666ZM105.052 9.23132C105.047 9.44347 104.979 9.64927 104.856 9.82242C104.733 9.99556 104.562 10.1282 104.363 10.2033C103.141 10.6613 101.793 10.6613 100.571 10.2033C100.373 10.1276 100.202 9.99466 100.08 9.82156C99.9584 9.64847 99.8907 9.443 99.886 9.23132C99.8993 8.96932 100 8.71942 100.173 8.52182C100.345 8.32423 100.579 8.19044 100.837 8.14199V7.03666H99.16V6.50799H105.745V7.03599H104.059V8.13332C104.324 8.17837 104.566 8.31116 104.747 8.51039C104.927 8.70962 105.036 8.96374 105.055 9.23199L105.052 9.23132ZM105.005 4.77332C104.998 4.98653 104.93 5.19337 104.81 5.3694C104.689 5.54542 104.521 5.68327 104.325 5.76666C103.74 6.04336 103.096 6.17138 102.451 6.13932C101.809 6.17119 101.169 6.04313 100.589 5.76666C100.394 5.68281 100.226 5.54474 100.106 5.36873C99.9864 5.19272 99.9195 4.98613 99.9133 4.77332C99.9177 4.55798 99.9837 4.34842 100.104 4.16943C100.223 3.99043 100.392 3.84951 100.589 3.76332C101.169 3.48701 101.809 3.35896 102.451 3.39066C103.096 3.35877 103.74 3.48678 104.325 3.76332C104.523 3.84898 104.692 3.98967 104.813 4.1687C104.933 4.34772 105 4.55756 105.005 4.77332ZM102.459 8.44399C101.979 8.42604 101.5 8.49376 101.045 8.64399C100.906 8.67261 100.781 8.74517 100.687 8.85087C100.593 8.95657 100.535 9.08977 100.523 9.23066C100.535 9.37065 100.591 9.50317 100.684 9.60826C100.778 9.71335 100.902 9.78532 101.04 9.81332C101.498 9.96135 101.978 10.0279 102.459 10.01C102.945 10.0287 103.431 9.96215 103.895 9.81332C104.032 9.78524 104.157 9.71327 104.25 9.60821C104.344 9.50315 104.4 9.37067 104.412 9.23066C104.4 9.08972 104.342 8.9565 104.248 8.85081C104.154 8.74512 104.029 8.67258 103.89 8.64399C103.428 8.49317 102.944 8.42501 102.459 8.44399ZM104.387 4.77332C104.375 4.62623 104.318 4.48635 104.224 4.37252C104.13 4.25868 104.003 4.17637 103.861 4.13666C103.412 3.96264 102.932 3.88277 102.451 3.90199C101.973 3.88236 101.496 3.96227 101.051 4.13666C100.91 4.17741 100.785 4.26023 100.692 4.37401C100.6 4.4878 100.544 4.62713 100.533 4.77332C100.546 4.91827 100.602 5.0559 100.696 5.16753C100.789 5.27917 100.914 5.35939 101.055 5.39732C101.501 5.56863 101.977 5.64712 102.455 5.62799C102.936 5.64699 103.415 5.56853 103.865 5.39732C104.006 5.35914 104.131 5.27883 104.224 5.16725C104.317 5.05567 104.374 4.91817 104.387 4.77332ZM101.475 7.03599V7.98266C101.8 7.93345 102.129 7.91115 102.459 7.91599C102.783 7.91145 103.106 7.93374 103.427 7.98266V7.03599H101.475ZM112.633 9.47466H106.048V8.94132H112.633V9.47466ZM111.689 4.05266C111.718 5.50414 111.609 6.95508 111.364 8.38599L110.729 8.30199C110.959 7.07563 111.063 5.82887 111.039 4.58132H106.733V4.05266H111.691H111.689ZM116.533 8.33332H115.899V7.38866H112.933V6.86666H119.518V7.38666H116.533V8.33332ZM118.828 6.27199H113.754V4.61466H118.043V3.99399H113.729V3.49132H118.686V5.09132H114.388V5.77066H118.828V6.27399V6.27199ZM118.695 10.454H113.745V7.93332H114.38V8.73799H118.052V7.92466H118.695V10.458V10.454ZM118.052 9.92599V9.24866H114.38V9.92732H118.052V9.92599Z" fill="#0055A2"/>
</g>
<defs>
<clipPath id="clip0_263_9177">
<rect width="160" height="40" fill="white"/>
</clipPath>
</defs>
</svg>
